<svg xmlns="http://www.w3.org/2000/svg" xmlns:xlink="http://www.w3.org/1999/xlink" width="99.828" height="80.665" viewBox="0 0 99.828 80.665">
  <defs>
    <linearGradient id="linear-gradient" x1="0.987" y1="0.024" x2="0.038" y2="0.944" gradientUnits="objectBoundingBox">
      <stop offset="0" stop-color="#f58626"/>
      <stop offset="1" stop-color="#ff8a00"/>
    </linearGradient>
  </defs>
  <g id="icon-certificate" transform="translate(-534 -3518.234)">
    <ellipse id="Ellipse_13" data-name="Ellipse 13" cx="39" cy="35.422" rx="39" ry="35.422" transform="translate(534 3518.234)" fill="url(#linear-gradient)"/>
    <path id="Vector" d="M0,0H2.344V2.157H0Z" transform="translate(581.094 3588.114)" fill="#fff"/>
    <path id="Vector-2" data-name="Vector" d="M0,0H2.344V2.157H0Z" transform="translate(581.094 3592.428)" fill="#fff"/>
    <path id="Vector-3" data-name="Vector" d="M7.031,0A6.776,6.776,0,0,0,0,6.471a6.776,6.776,0,0,0,7.031,6.471,6.776,6.776,0,0,0,7.031-6.471A6.776,6.776,0,0,0,7.031,0Zm0,10.786A4.517,4.517,0,0,1,2.344,6.471,4.517,4.517,0,0,1,7.031,2.157a4.517,4.517,0,0,1,4.688,4.314A4.517,4.517,0,0,1,7.031,10.786Z" transform="translate(610.391 3566.542)" fill="#fff"/>
    <path id="Vector-4" data-name="Vector" d="M72.656,0H9.375V21.571a2.259,2.259,0,0,0-2.344,2.157H5.859a3.389,3.389,0,0,0-3.516,3.236v5.754C.741,33.75,0,36.719,0,37.75a3.389,3.389,0,0,0,3.516,3.236A3.389,3.389,0,0,0,7.031,37.75c0-1.031-.741-4-2.344-5.032V26.964a1.13,1.13,0,0,1,1.172-1.079H7.031a2.259,2.259,0,0,0,2.344,2.157v3.966l.736.271c.055.02.405.147.952.326a8.943,8.943,0,0,0-.516,2.988,9.563,9.563,0,0,0,5.017,8.25C6.611,46.087,0,53.616,0,62.557v4.314H42.188V62.557c0-8.941-6.611-16.47-15.564-18.714a10.636,10.636,0,0,0,1.084-.7H44.767a10.913,10.913,0,0,0,5.657,7.188L49.031,63.139l7.219-2.657,7.218,2.657L62.075,50.33a10.915,10.915,0,0,0,5.657-7.188h4.924ZM3.516,38.828A1.13,1.13,0,0,1,2.344,37.75,6.347,6.347,0,0,1,3.516,34.6,6.343,6.343,0,0,1,4.688,37.75,1.13,1.13,0,0,1,3.516,38.828Zm5.858-15.1H32.813v2.157H9.375Zm21.095,4.314V30.53a33.975,33.975,0,0,1-9.375,1.827,33.975,33.975,0,0,1-9.375-1.827V28.043ZM21.094,51.412l3.716,4.56,3.315-6.1V64.714H14.063V49.87l3.315,6.1Zm11.719,13.3H30.469V47.635a19.027,19.027,0,0,1,2.344,1.472ZM27.164,46.246c.088.028.173.059.261.088L24.41,51.885l-1.719-2.11ZM9.375,49.107a19.027,19.027,0,0,1,2.344-1.472V64.714H9.375Zm8.4,2.777-3.015-5.551c.087-.029.173-.06.261-.088L19.5,49.774ZM2.344,62.557A16.412,16.412,0,0,1,7.031,51.181V64.714H2.344Zm37.5,0v2.157H35.156V51.181A16.412,16.412,0,0,1,39.844,62.557ZM24.4,45.586l-3.306,2.608-3.306-2.608a19.261,19.261,0,0,1,6.612,0Zm-3.306-2.443c-4.523,0-8.2-3.387-8.2-7.55a6.975,6.975,0,0,1,.4-2.319,31.345,31.345,0,0,0,7.8,1.24,31.4,31.4,0,0,0,7.8-1.239,6.964,6.964,0,0,1,.4,2.318C29.3,39.756,25.617,43.143,21.094,43.143ZM60.751,59.816l-4.5-1.657-4.5,1.658.93-8.562a12.623,12.623,0,0,0,7.141,0Zm-4.5-10.2c-5.169,0-9.375-3.871-9.375-8.629s4.206-8.629,9.375-8.629,9.375,3.871,9.375,8.629S61.419,49.614,56.25,49.614Zm14.063-8.629H67.969c0-5.947-5.257-10.786-11.719-10.786S44.531,35.038,44.531,40.986H29.857a9.117,9.117,0,0,0,1.784-5.393,8.957,8.957,0,0,0-.516-2.987c.546-.179.9-.305.952-.326l.736-.272V28.043a2.259,2.259,0,0,0,2.344-2.157V23.728a2.259,2.259,0,0,0-2.344-2.157H11.719V2.157H70.313Z" transform="translate(561.172 3532.028)" fill="#fff"/>
    <path id="Vector-5" data-name="Vector" d="M53.906,0H0V10.786H53.906ZM51.563,8.629H2.344V2.157H51.563Z" transform="translate(575.234 3536.343)" fill="#fff"/>
    <path id="Vector-6" data-name="Vector" d="M0,0H2.344V2.157H0Z" transform="translate(575.234 3549.285)" fill="#fff"/>
    <path id="Vector-7" data-name="Vector" d="M0,0H49.219V2.157H0Z" transform="translate(579.922 3549.285)" fill="#fff"/>
    <path id="Vector-8" data-name="Vector" d="M0,0H25.781V2.157H0Z" transform="translate(598.672 3553.599)" fill="#fff"/>
    <path id="Vector-9" data-name="Vector" d="M0,0H30.469V2.157H0Z" transform="translate(598.672 3557.914)" fill="#fff"/>
    <path id="Vector-10" data-name="Vector" d="M0,0H2.344V2.157H0Z" transform="translate(598.672 3562.228)" fill="#fff"/>
    <path id="Vector-11" data-name="Vector" d="M0,0H2.344V2.157H0Z" transform="translate(603.359 3562.228)" fill="#fff"/>
  </g>
</svg>
