<svg xmlns="http://www.w3.org/2000/svg" xmlns:xlink="http://www.w3.org/1999/xlink" width="122.806" height="94.02" viewBox="0 0 122.806 94.02">
  <defs>
    <linearGradient id="linear-gradient" x1="0.987" y1="0.024" x2="0.038" y2="0.944" gradientUnits="objectBoundingBox">
      <stop offset="0" stop-color="#ffc000"/>
      <stop offset="1" stop-color="#f58825"/>
    </linearGradient>
  </defs>
  <g id="icon-screen" transform="translate(-1006 -959)">
    <rect id="Rectangle_4" data-name="Rectangle 4" width="85" height="85" rx="42.5" transform="translate(1006 959)" fill="url(#linear-gradient)"/>
    <g id="Group_25" data-name="Group 25">
      <g id="Group_24" data-name="Group 24">
        <g id="Group">
          <g id="Group-2" data-name="Group">
            <path id="Vector" d="M92.916,39.975V7.4c0-4.082-3.656-7.4-8.15-7.4H13.041C8.547,0,4.89,3.321,4.89,7.4V29.611A4.688,4.688,0,0,0,0,34.053V78.47a4.688,4.688,0,0,0,4.89,4.442H40.752a4.688,4.688,0,0,0,4.89-4.442H59.3a5.039,5.039,0,0,0,3.886-1.746,4.093,4.093,0,0,0,.831-3.864l-3.2-10.676h9.277V78.47a4.688,4.688,0,0,0,4.89,4.442H92.916a4.688,4.688,0,0,0,4.89-4.442V44.417A4.688,4.688,0,0,0,92.916,39.975ZM42.383,78.47a1.563,1.563,0,0,1-1.63,1.481H4.89A1.563,1.563,0,0,1,3.26,78.47V75.509H42.383Zm0-5.922H3.26V39.975H42.383Zm0-35.534H3.26V34.053a1.563,1.563,0,0,1,1.63-1.481H40.752a1.563,1.563,0,0,1,1.63,1.481Zm18.5,36.625a1.362,1.362,0,0,1-.277,1.288,1.678,1.678,0,0,1-1.3.582H45.643V72.548H60.55ZM45.643,69.586v-7.4h11.8l2.223,7.4ZM70.094,59.222H45.643V50.339H70.094Zm0-14.806v2.961H45.643V34.053a4.688,4.688,0,0,0-4.89-4.442H8.15V7.4a4.688,4.688,0,0,1,4.89-4.442H84.765A4.688,4.688,0,0,1,89.655,7.4V39.975H74.985A4.688,4.688,0,0,0,70.094,44.417ZM94.546,78.47a1.563,1.563,0,0,1-1.63,1.481H74.985a1.563,1.563,0,0,1-1.63-1.481V75.509H94.546Zm0-5.922H73.354V50.339H94.546Zm0-25.17H73.354V44.417a1.563,1.563,0,0,1,1.63-1.481H92.916a1.563,1.563,0,0,1,1.63,1.481Z" transform="translate(1031 970.108)" fill="#5c5c5c"/>
          </g>
        </g>
      </g>
    </g>
  </g>
</svg>
