<svg xmlns="http://www.w3.org/2000/svg" width="97.999" height="79.02" viewBox="0 0 97.999 79.02">
  <g id="icon-eyes" transform="translate(-834 -3518.234)">
    <ellipse id="Ellipse_14" data-name="Ellipse 14" cx="39" cy="35.422" rx="39" ry="35.422" transform="translate(834 3518.234)" fill="#f58626"/>
    <g id="Group">
      <g id="Group-2" data-name="Group">
        <path id="Vector" d="M26.833,7.418H8.167V3.709A3.91,3.91,0,0,0,4.083,0,3.91,3.91,0,0,0,0,3.709V25.432a1.117,1.117,0,0,0,1.167,1.06H17.5A3.34,3.34,0,0,0,21,23.34a3.008,3.008,0,0,0-.91-2.147,2.923,2.923,0,0,0,0-4.239,2.874,2.874,0,0,0,.7-3.179h6.043a3.351,3.351,0,0,0,3.5-3.179A3.351,3.351,0,0,0,26.833,7.418ZM17.5,24.372H12.833a1.065,1.065,0,1,1,0-2.119H17.5a1.065,1.065,0,1,1,0,2.119Zm0-4.239H12.833a1.065,1.065,0,1,1,0-2.119H17.5a1.065,1.065,0,1,1,0,2.119Zm0-4.239H12.833a1.065,1.065,0,1,1,0-2.119H17.5a1.065,1.065,0,1,1,0,2.119Zm9.333-4.239h-14a3.34,3.34,0,0,0-3.5,3.151,3.008,3.008,0,0,0,.91,2.147,2.923,2.923,0,0,0,0,4.239,2.874,2.874,0,0,0-.7,3.179H2.333V3.709a1.676,1.676,0,0,1,1.75-1.589,1.676,1.676,0,0,1,1.75,1.589V8.477A1.117,1.117,0,0,0,7,9.537H26.833A1.117,1.117,0,0,1,28,10.6,1.117,1.117,0,0,1,26.833,11.656Z" transform="translate(862 3570.762)" fill="#fff"/>
      </g>
    </g>
    <g id="Group-3" data-name="Group">
      <g id="Group-4" data-name="Group">
        <path id="Vector-2" data-name="Vector" d="M29.167,0H12.833a3.34,3.34,0,0,0-3.5,3.151,3.008,3.008,0,0,0,.91,2.147,2.923,2.923,0,0,0,0,4.239,2.874,2.874,0,0,0-.7,3.179H3.5A3.351,3.351,0,0,0,0,15.895a3.351,3.351,0,0,0,3.5,3.179H22.167v3.709a3.91,3.91,0,0,0,4.083,3.709,3.91,3.91,0,0,0,4.083-3.709V1.06A1.117,1.117,0,0,0,29.167,0ZM12.833,2.119H17.5a1.117,1.117,0,0,1,1.167,1.06A1.117,1.117,0,0,1,17.5,4.239H12.833a1.117,1.117,0,0,1-1.167-1.06A1.117,1.117,0,0,1,12.833,2.119Zm0,4.239H17.5a1.117,1.117,0,0,1,1.167,1.06A1.117,1.117,0,0,1,17.5,8.477H12.833a1.117,1.117,0,0,1-1.167-1.06A1.117,1.117,0,0,1,12.833,6.358Zm0,4.239H17.5a1.065,1.065,0,1,1,0,2.119H12.833a1.065,1.065,0,1,1,0-2.119ZM28,22.782a1.758,1.758,0,0,1-3.5,0V18.014a1.117,1.117,0,0,0-1.167-1.06H3.5a1.065,1.065,0,1,1,0-2.119h14A3.34,3.34,0,0,0,21,11.684a3.008,3.008,0,0,0-.91-2.147,2.923,2.923,0,0,0,0-4.239,2.874,2.874,0,0,0,.7-3.179H28Z" transform="translate(901.666 3533.675)" fill="#fff"/>
      </g>
    </g>
    <g id="Group-5" data-name="Group">
      <g id="Group-6" data-name="Group">
        <path id="Vector-3" data-name="Vector" d="M5.833,0A5.585,5.585,0,0,0,0,5.3a5.592,5.592,0,0,0,5.833,5.3,5.585,5.585,0,0,0,5.833-5.3A5.585,5.585,0,0,0,5.833,0Zm0,8.477A3.351,3.351,0,0,1,2.333,5.3a3.351,3.351,0,0,1,3.5-3.179A3.351,3.351,0,0,1,9.333,5.3,3.351,3.351,0,0,1,5.833,8.477Z" transform="translate(891.168 3560.165)" fill="#fff"/>
      </g>
    </g>
    <g id="Group-7" data-name="Group">
      <g id="Group-8" data-name="Group">
        <path id="Vector-4" data-name="Vector" d="M53.357,10.947l-.35-.357C40-2.542,17.727-3.607,3.268,8.211A33.794,33.794,0,0,0,.65,10.59l-.35.357a.989.989,0,0,0,0,1.418l.35.357C13.661,25.854,35.93,26.919,50.388,15.1a33.794,33.794,0,0,0,2.619-2.379l.35-.357A.989.989,0,0,0,53.357,10.947Zm-50.62.709A33.662,33.662,0,0,1,17.984,3.231,10.873,10.873,0,0,0,17.5,19.642q.234.225.482.437A33.664,33.664,0,0,1,2.737,11.656Zm24.092,9.537c-5.8,0-10.5-4.27-10.5-9.537s4.7-9.537,10.5-9.537,10.493,4.272,10.5,9.537S32.627,21.193,26.828,21.193Zm8.844-1.112A10.873,10.873,0,0,0,36.154,3.67q-.234-.225-.482-.437A33.663,33.663,0,0,1,50.92,11.656,33.662,33.662,0,0,1,35.673,20.081Z" transform="translate(870.172 3553.807)" fill="#fff"/>
      </g>
    </g>
  </g>
</svg>
