<svg xmlns="http://www.w3.org/2000/svg" width="11.816" height="9.415" viewBox="0 0 11.816 9.415">
  <path id="Icon_metro-tags" data-name="Icon metro-tags" d="M12.553,3h-3.6a1.252,1.252,0,0,0-.768.318L3.719,7.784a.451.451,0,0,0,0,.637l3.864,3.864a.451.451,0,0,0,.637,0L12.685,7.82A1.252,1.252,0,0,0,13,7.052v-3.6a.451.451,0,0,0-.45-.45ZM10.3,6.6a.9.9,0,1,1,.9-.9A.9.9,0,0,1,10.3,6.6ZM2.2,8.1,7.3,3h-.75a1.252,1.252,0,0,0-.768.318L1.319,7.784a.451.451,0,0,0,0,.637l3.864,3.864a.451.451,0,0,0,.637,0L6.1,12,2.2,8.1Z" transform="translate(-1.187 -3.001)" fill="#fff"/>
</svg>
