<svg xmlns="http://www.w3.org/2000/svg" width="103" height="81.743" viewBox="0 0 103 81.743">
  <g id="icon-student" transform="translate(-231 -3518.234)">
    <ellipse id="Ellipse_12" data-name="Ellipse 12" cx="39" cy="35.422" rx="39" ry="35.422" transform="translate(231 3518.234)" fill="#f58626"/>
    <g id="Group">
      <g id="Group-2" data-name="Group">
        <g id="Group-3" data-name="Group">
          <path id="Vector" d="M1.074,5.742,29.441,9.194A1.464,1.464,0,0,0,29.6,9.2a1.5,1.5,0,0,0,.159-.009L56.734,5.912V9.906c-.773.811-2.467,2.835-2.467,5.049a3.709,3.709,0,0,0,7.4,0c0-2.215-1.693-4.238-2.467-5.049V4.6a1.073,1.073,0,0,0-.093-.429,1.113,1.113,0,0,0-.084-.128,1.136,1.136,0,0,0-.163-.227,1.057,1.057,0,0,0-.144-.106,2.164,2.164,0,0,0-.591-.252L29.759.009a1.477,1.477,0,0,0-.318,0L1.074,3.46A1.182,1.182,0,0,0,0,4.6,1.181,1.181,0,0,0,1.074,5.742ZM59.2,14.955c0,.918-.667,1.133-1.233,1.15-.566-.017-1.233-.232-1.233-1.15a5.155,5.155,0,0,1,1.233-2.806A5.155,5.155,0,0,1,59.2,14.955ZM29.6,2.31,48.432,4.6,29.6,6.893,10.768,4.6Z" transform="translate(267.4 3530.95)" fill="#fff"/>
          <path id="Vector-2" data-name="Vector" d="M24.667,9.2a4.821,4.821,0,0,0,4.866-3.981l4.508-3.152A1.1,1.1,0,0,0,34.287.461a1.291,1.291,0,0,0-1.727-.23l-3.144,2.2A3.67,3.67,0,0,0,25.9,0H20.967a3.587,3.587,0,0,0-3.7,3.451A3.587,3.587,0,0,0,13.567,0H8.634a3.67,3.67,0,0,0-3.516,2.43L1.974.231A1.294,1.294,0,0,0,.247.461,1.1,1.1,0,0,0,.494,2.072L5,5.224A4.82,4.82,0,0,0,9.867,9.2h2.467a4.781,4.781,0,0,0,4.933-4.6A4.781,4.781,0,0,0,22.2,9.2ZM14.8,4.6a2.391,2.391,0,0,1-2.467,2.3H9.867A2.391,2.391,0,0,1,7.4,4.6V3.452A1.2,1.2,0,0,1,8.634,2.3h4.933A1.2,1.2,0,0,1,14.8,3.452V4.6Zm4.933,0V3.452A1.2,1.2,0,0,1,20.967,2.3H25.9a1.2,1.2,0,0,1,1.233,1.15V4.6a2.391,2.391,0,0,1-2.467,2.3H22.2A2.391,2.391,0,0,1,19.734,4.6Z" transform="translate(279.732 3556.259)" fill="#fff"/>
          <path id="Vector-3" data-name="Vector" d="M39.4,3.17a1.169,1.169,0,0,0-.1-.231c-.023-.04-.028-.086-.056-.125-.014-.017-.033-.026-.047-.044a1.167,1.167,0,0,0-.183-.168,1.031,1.031,0,0,0-.187-.137.694.694,0,0,0-.057-.043L33.835.122A1.308,1.308,0,0,0,32.6.193L25.2,4.8a1.132,1.132,0,0,0-.549.957v4.08A8.455,8.455,0,0,1,19.716,11.5a8.556,8.556,0,0,1-4.933-1.676V5.752a1.132,1.132,0,0,0-.549-.957l-7.4-4.6A1.308,1.308,0,0,0,5.6.122L.665,2.422a.6.6,0,0,0-.054.04,1.084,1.084,0,0,0-.2.145,1.143,1.143,0,0,0-.171.159C.226,2.784.2,2.794.19,2.813a1.052,1.052,0,0,0-.058.132,1.139,1.139,0,0,0-.1.221A1.059,1.059,0,0,0,0,3.381a1.05,1.05,0,0,0,0,.216,1.01,1.01,0,0,0,.067.23,1.042,1.042,0,0,0,.039.138c.011.021.032.033.044.053A1.085,1.085,0,0,0,.31,4.2a1.294,1.294,0,0,0,.171.161c.02.014.031.035.051.047l7.4,4.6a1.292,1.292,0,0,0,.683.193,1.257,1.257,0,0,0,1.027-.512A1.1,1.1,0,0,0,9.3,7.1l-5.633-3.5L6.061,2.478l6.256,3.89v3.986a1.11,1.11,0,0,0,.361.813,11.021,11.021,0,0,0,7.039,2.638,11.021,11.021,0,0,0,7.039-2.638,1.114,1.114,0,0,0,.361-.813V6.368l6.257-3.89,2.391,1.115L30.132,7.1a1.1,1.1,0,0,0-.342,1.6,1.257,1.257,0,0,0,1.027.512,1.292,1.292,0,0,0,.683-.193l7.4-4.6c.02-.013.03-.032.048-.045a1.218,1.218,0,0,0,.181-.169,1.23,1.23,0,0,0,.144-.174c.012-.021.035-.033.046-.055a.91.91,0,0,0,.043-.146,1.048,1.048,0,0,0,.063-.217,1.019,1.019,0,0,0,0-.229A.978.978,0,0,0,39.4,3.17Z" transform="translate(277.284 3586.172)" fill="#fff"/>
          <path id="Vector-4" data-name="Vector" d="M51.888,33.792a1.239,1.239,0,0,0,1.146.723,1.3,1.3,0,0,0,.458-.083,1.126,1.126,0,0,0,.688-1.494A32.741,32.741,0,0,1,51.8,21.859v-9.2c0-9.8-5.386-12.426-5.615-12.533a1.305,1.305,0,0,0-1.2.049,1.137,1.137,0,0,0-.586.979v4.6c0,4.351-3.569,13.289-4.8,15.592-1.106,2.065-6.96,8.568-12.463,8.568s-11.357-6.5-12.464-8.568c-1.233-2.3-4.8-11.241-4.8-15.592v-4.6A1.137,1.137,0,0,0,9.281.172a1.305,1.305,0,0,0-1.2-.049C7.853.229,2.467,2.853,2.467,12.655v9.2A32.74,32.74,0,0,1,.088,32.937a1.126,1.126,0,0,0,.688,1.494,1.267,1.267,0,0,0,1.6-.64A34.452,34.452,0,0,0,4.934,21.859v-9.2c0-4.665,1.3-7.376,2.467-8.867V5.752c0,4.938,3.884,14.421,5.063,16.621,1.5,2.8,8.07,9.84,14.671,9.84s13.17-7.04,14.669-9.84c1.18-2.2,5.064-11.683,5.064-16.621V3.791c1.166,1.492,2.467,4.2,2.467,8.864v9.2A34.446,34.446,0,0,0,51.888,33.792Z" transform="translate(269.867 3551.657)" fill="#fff"/>
          <path id="Vector-5" data-name="Vector" d="M7.777.325a4.465,4.465,0,0,1-2.843.826A4.47,4.47,0,0,1,2.093.326,1.3,1.3,0,0,0,.362.338a1.1,1.1,0,0,0,0,1.627A6.806,6.806,0,0,0,4.934,3.452,6.805,6.805,0,0,0,9.506,1.964,1.088,1.088,0,0,0,9.513.358,1.306,1.306,0,0,0,7.777.325Z" transform="translate(292.066 3572.366)" fill="#fff"/>
          <path id="Vector-6" data-name="Vector" d="M14.736,9.991c-.109-.306-2.8-7.53-13.2-9.956A1.239,1.239,0,0,0,.037.872a1.148,1.148,0,0,0,.9,1.4C9.972,4.375,12.3,10.466,12.4,10.719a1.228,1.228,0,0,0,1.169.787,1.317,1.317,0,0,0,.39-.059A1.135,1.135,0,0,0,14.736,9.991Z" transform="translate(319.2 3588.472)" fill="#fff"/>
          <path id="Vector-7" data-name="Vector" d="M39.467,9.2V1.15A1.236,1.236,0,0,0,37,1.15V8.459A48.6,48.6,0,0,1,19.733,11.5,48.6,48.6,0,0,1,2.467,8.459V1.15A1.194,1.194,0,0,0,1.233,0,1.194,1.194,0,0,0,0,1.15V9.2a1.146,1.146,0,0,0,.682,1.03,48.548,48.548,0,0,0,19.051,3.572,48.548,48.548,0,0,0,19.051-3.572A1.146,1.146,0,0,0,39.467,9.2Z" transform="translate(277.267 3539.002)" fill="#fff"/>
          <path id="Vector-8" data-name="Vector" d="M13.268.035C2.864,2.462.172,9.686.064,9.992a1.135,1.135,0,0,0,.779,1.455,1.307,1.307,0,0,0,.39.059A1.228,1.228,0,0,0,2.4,10.719c.023-.063,2.358-6.329,11.463-8.452a1.148,1.148,0,0,0,.9-1.4A1.24,1.24,0,0,0,13.268.035Z" transform="translate(260 3588.472)" fill="#fff"/>
        </g>
      </g>
    </g>
  </g>
</svg>
