<svg xmlns="http://www.w3.org/2000/svg" xmlns:xlink="http://www.w3.org/1999/xlink" width="92.111" height="96.699" viewBox="0 0 92.111 96.699">
  <defs>
    <linearGradient id="linear-gradient" x1="0.987" y1="0.024" x2="0.038" y2="0.944" gradientUnits="objectBoundingBox">
      <stop offset="0" stop-color="#ffc000"/>
      <stop offset="1" stop-color="#f58825"/>
    </linearGradient>
  </defs>
  <g id="icon-pointer" transform="translate(-354 -958.301)">
    <rect id="Rectangle_2" data-name="Rectangle 2" width="85" height="85" rx="42.5" transform="translate(354 970)" fill="url(#linear-gradient)"/>
    <g id="Group_11.1" data-name="Group 11.1">
      <path id="Vector" d="M.341,42.219a4.573,4.573,0,0,0,1.547,5.408c3.26,2.963,9.964,13.658,13.282,21.2,2.265,5.14,7.237,10.186,11.01,13.514a7.365,7.365,0,0,1,2.53,5.5v.567a4.905,4.905,0,0,0,5.123,4.653H61.156a4.905,4.905,0,0,0,5.123-4.653V83.644a1.355,1.355,0,0,1,.456-1.056c6.3-5.235,6.375-13.974,6.375-14.343V43.691a6.625,6.625,0,0,0-6.333-6.45,7.385,7.385,0,0,0-3.912.845V35.674a6.092,6.092,0,0,0-3.446-5.4,7.385,7.385,0,0,0-6.874.1,6.162,6.162,0,0,0-3.665-4.888,7.351,7.351,0,0,0-6.508.2V23.11a12.1,12.1,0,0,0,6.831-10.7C49.2,5.555,43.086,0,35.541,0S21.879,5.555,21.879,12.408a12.1,12.1,0,0,0,6.831,10.7V48.082A15.7,15.7,0,0,1,27.9,53.49a1.67,1.67,0,0,1-1.231,1.042,1.764,1.764,0,0,1-1.537-.366A22.7,22.7,0,0,1,21.6,50.323C18.634,46.3,11.178,38.776,6.51,38.776A6.789,6.789,0,0,0,.341,42.219ZM25.295,12.408c0-5.14,4.587-9.306,10.246-9.306s10.246,4.166,10.246,9.306a8.863,8.863,0,0,1-3.415,6.946V12.408c0-3.426-3.058-6.2-6.831-6.2s-6.831,2.778-6.831,6.2v6.946A8.865,8.865,0,0,1,25.295,12.408ZM18.751,52.045a25.954,25.954,0,0,0,4.035,4.381,5.417,5.417,0,0,0,4.71,1.115,4.985,4.985,0,0,0,3.637-3.059,18.485,18.485,0,0,0,.992-6.4V12.408a3.431,3.431,0,0,1,6.831,0V44.98a1.716,1.716,0,0,0,3.415,0V31.021a3.432,3.432,0,0,1,6.831,0V44.98a1.716,1.716,0,0,0,3.415,0V35.674a3.431,3.431,0,0,1,6.831,0V46.531a1.716,1.716,0,0,0,3.415,0v-3.1a2.941,2.941,0,0,1,1-2.192,3.66,3.66,0,0,1,2.664-.9,3.419,3.419,0,0,1,3.164,3.356V68.245c0,.076-.087,7.755-5.266,12.055a4.337,4.337,0,0,0-1.564,3.343v4.765a1.635,1.635,0,0,1-1.708,1.551H33.833a1.635,1.635,0,0,1-1.708-1.551v-.567a10.357,10.357,0,0,0-3.567-7.731c-2.893-2.551-8.067-7.563-10.215-12.442C14.828,59.693,7.875,48.679,4.3,45.434c-.813-.738-1.085-1.421-.808-2.028A3.452,3.452,0,0,1,6.51,41.878c2.321,0,8.614,5.226,12.241,10.167Z" transform="translate(373 958.33)" fill="#5c5c5c"/>
      <path id="Vector-2" data-name="Vector" d="M1.707,12.408a1.635,1.635,0,0,0,1.708-1.551V1.551A1.635,1.635,0,0,0,1.707,0,1.635,1.635,0,0,0,0,1.551v9.306a1.635,1.635,0,0,0,1.707,1.551Z" transform="translate(435.865 1012.615)" fill="#5c5c5c"/>
      <path id="Vector-3" data-name="Vector" d="M1.707,6.182a1.8,1.8,0,0,0,1.207-.454,6.086,6.086,0,0,0,2.208-4.2A1.613,1.613,0,0,0,3.456,0,1.656,1.656,0,0,0,1.707,1.493,3.333,3.333,0,0,1,.5,3.535a1.449,1.449,0,0,0-.37,1.69,1.716,1.716,0,0,0,1.578.958Z" transform="translate(434.155 1028.147)" fill="#5c5c5c"/>
      <path id="Vector-4" data-name="Vector" d="M1.708,3.1H3.415A1.635,1.635,0,0,0,5.123,1.551,1.635,1.635,0,0,0,3.415,0H1.708A1.635,1.635,0,0,0,0,1.551,1.635,1.635,0,0,0,1.708,3.1Z" transform="translate(408.539 1042.085)" fill="#5c5c5c"/>
      <path id="Vector-5" data-name="Vector" d="M1.707,3.1H13.661a1.635,1.635,0,0,0,1.708-1.551A1.635,1.635,0,0,0,13.661,0H1.707A1.635,1.635,0,0,0,0,1.551,1.635,1.635,0,0,0,1.707,3.1Z" transform="translate(417.079 1042.085)" fill="#5c5c5c"/>
      <path id="Vector-6" data-name="Vector" d="M6.83,25.681A1.721,1.721,0,0,0,8.4,24.746a1.445,1.445,0,0,0-.323-1.678,14.431,14.431,0,0,1-.748-20.5,1.444,1.444,0,0,0,.315-1.546,1.678,1.678,0,0,0-1.334-1A1.8,1.8,0,0,0,4.7.591a17.327,17.327,0,0,0,.89,24.6A1.794,1.794,0,0,0,6.83,25.681Z" transform="translate(388.049 958.301)" fill="#5c5c5c"/>
      <path id="Vector-7" data-name="Vector" d="M3.191,21.572a1.863,1.863,0,0,0,1.3.1,1.672,1.672,0,0,0,1-.769A17.2,17.2,0,0,0,3.049.591,1.8,1.8,0,0,0,1.436.02a1.678,1.678,0,0,0-1.334,1A1.441,1.441,0,0,0,.418,2.567,14.325,14.325,0,0,1,2.452,19.485,1.485,1.485,0,0,0,3.191,21.572Z" transform="translate(421.29 958.301)" fill="#5c5c5c"/>
    </g>
  </g>
</svg>
