<svg xmlns="http://www.w3.org/2000/svg" xmlns:xlink="http://www.w3.org/1999/xlink" width="107.021" height="89.744" viewBox="0 0 107.021 89.744">
  <defs>
    <linearGradient id="linear-gradient" x1="0.987" y1="0.024" x2="0.038" y2="0.944" gradientUnits="objectBoundingBox">
      <stop offset="0" stop-color="#ffc000"/>
      <stop offset="1" stop-color="#f58825"/>
    </linearGradient>
  </defs>
  <g id="icon-teaching" transform="translate(-675 -959)">
    <rect id="Rectangle_3" data-name="Rectangle 3" width="85" height="85" rx="42.5" transform="translate(675 959)" fill="url(#linear-gradient)"/>
    <g id="Group_10" data-name="Group 10">
      <g id="XMLID_129" data-name="XMLID 129">
        <g id="XMLID_134" data-name="XMLID 134" transform="translate(728.586 969.782)" fill="none">
          <path d="M48.2,0H2.736A2.62,2.62,0,0,0,0,2.486V20.023l1.978-2.1A6.454,6.454,0,0,1,5.472,16.05V4.972h39.99V37.436H5.472V32L4.24,33.31A6.585,6.585,0,0,1,0,35.3v4.623a2.619,2.619,0,0,0,2.736,2.485H17.5L10,73.338A2.582,2.582,0,0,0,12.157,76.4a2.849,2.849,0,0,0,3.371-1.957L23.3,42.406h4.516l7.769,32.039a2.784,2.784,0,0,0,2.762,2.017,3.129,3.129,0,0,0,.612-.059,2.577,2.577,0,0,0,2.154-3.065l-7.5-30.932H48.2a2.62,2.62,0,0,0,2.736-2.485V2.486A2.621,2.621,0,0,0,48.2,0Z" stroke="none"/>
          <path d="M 2.735805511474609 0 C 1.223289489746094 0 -7.62939453125e-06 1.11456298828125 -7.62939453125e-06 2.486259460449219 L -7.62939453125e-06 20.02277755737305 L 1.978065490722656 17.92221069335938 C 2.917381286621094 16.92351913452148 4.15570068359375 16.30767059326172 5.471782684326172 16.05037689208984 L 5.471782684326172 4.971565246582031 L 45.46224212646484 4.971565246582031 L 45.46224212646484 37.43564605712891 L 5.471958160400391 37.43564605712891 L 5.471958160400391 32.00123596191406 L 4.239921569824219 33.30975341796875 C 3.163253784179688 34.45082473754883 1.643405914306641 35.15890502929688 -7.62939453125e-06 35.29842376708984 L -7.62939453125e-06 39.92110824584961 C -7.62939453125e-06 41.29281234741211 1.223289489746094 42.40594100952148 2.735805511474609 42.40594100952148 L 17.50075912475586 42.40594100952148 L 9.999534606933594 73.33769226074219 C 9.663486480712891 74.72479248046875 10.6286506652832 76.09663391113281 12.15707778930664 76.40265655517578 C 13.67167282104492 76.70487213134766 15.19467544555664 75.83109283447266 15.52759170532227 74.44542694091797 L 23.29672241210938 42.40610504150391 L 27.81312370300293 42.40610504150391 L 35.58224105834961 74.44542694091797 C 35.87339401245117 75.64490509033203 37.04424285888672 76.46343994140625 38.34391021728516 76.46202087402344 C 38.54558181762695 76.46202087402344 38.75179290771484 76.44345855712891 38.95590972900391 76.40265655517578 C 40.48432159423828 76.09663391113281 41.44932174682617 74.72494506835938 41.11029815673828 73.33769226074219 L 33.60977172851562 42.40594100952148 L 48.19858169555664 42.40594100952148 C 49.70968627929688 42.40594100952148 50.93438339233398 41.29281234741211 50.93438339233398 39.92110824584961 L 50.93438339233398 2.486259460449219 C 50.9342041015625 1.11456298828125 49.70952224731445 0 48.19840621948242 0 L 2.735805511474609 0 M 2.735805511474609 -2.5 L 48.19840621948242 -2.5 C 51.08518218994141 -2.5 53.43402862548828 -0.2633132934570312 53.43438339233398 2.485939025878906 L 53.43438339233398 39.92110824584961 C 53.43438339233398 42.66975402832031 51.08561706542969 44.90594100952148 48.19858169555664 44.90594100952148 L 36.78843307495117 44.90594100952148 L 43.53988647460938 72.74855041503906 C 43.85589981079102 74.04161071777344 43.63180541992188 75.38265991210938 42.90782928466797 76.52028656005859 C 42.14736938476562 77.71524810791016 40.88584136962891 78.56585693359375 39.44672393798828 78.85400390625 C 39.08787536621094 78.92572784423828 38.71709823608398 78.96202087402344 38.34391021728516 78.96202087402344 C 37.18607711791992 78.96202087402344 36.04261779785156 78.59562683105469 35.12076950073242 77.93030548095703 C 34.13158416748047 77.21641540527344 33.43267822265625 76.18820953369141 33.15278244018555 75.03511810302734 L 25.84689331054688 44.90610504150391 L 25.26295280456543 44.90610504150391 L 17.95795440673828 75.03138732910156 C 17.67945098876953 76.1884765625 16.97700881958008 77.21970367431641 15.97985076904297 77.93529510498047 C 15.05690002441406 78.59763336181641 13.91389846801758 78.96240234375 12.76139450073242 78.96240234375 C 12.39518356323242 78.96240234375 12.02727508544922 78.92603302001953 11.66788864135742 78.85433197021484 C 10.22871017456055 78.56617736816406 8.967700958251953 77.71665954589844 8.206558227539062 76.52326965332031 C 7.481662750244141 75.38671875 7.255535125732422 74.04634094238281 7.569816589355469 72.74906158447266 L 14.322021484375 44.90594100952148 L 2.735805511474609 44.90594100952148 C -0.1512298583984375 44.90594100952148 -2.500007629394531 42.66975402832031 -2.500007629394531 39.92110824584961 L -2.500007629394531 33.00167083740234 L -0.2114906311035156 32.80738830566406 C 0.8317718505859375 32.71881103515625 1.766887664794922 32.28790664672852 2.421592712402344 31.59404754638672 L 7.971958160400391 25.69911956787109 L 7.971958160400391 34.93564605712891 L 42.96224212646484 34.93564605712891 L 42.96224212646484 7.471565246582031 L 7.971782684326172 7.471565246582031 L 7.971782684326172 18.10895538330078 L 5.951454162597656 18.50392913818359 C 5.343017578125 18.62288284301758 4.475711822509766 18.91567230224609 3.79913330078125 19.63501358032227 L -2.500007629394531 26.32423782348633 L -2.500007629394531 2.486259460449219 C -2.500007629394531 -0.2631759643554688 -0.1512298583984375 -2.5 2.735805511474609 -2.5 Z" stroke="none" fill="#5c5c5c"/>
        </g>
        <path id="XMLID_132" data-name="XMLID 132" d="M31.985.608a1.092,1.092,0,0,0-1.37-.541L14.5,5.235a3.794,3.794,0,0,0-4.847.449L4.535,11.109,0,7.578a8.448,8.448,0,0,1,.1.874v7.665L2.621,18.08a3.793,3.793,0,0,0,4.989-.349L13.7,11.265,18.61,8.655,31.533,1.788A.917.917,0,0,0,31.985.608Z" transform="translate(723.068 983.69)" fill="#5c5c5c"/>
        <path id="XMLID_131" data-name="XMLID 131" d="M19.211,0H16.173A7.344,7.344,0,0,0,10.5,2.591l-9.324,7.8A3.011,3.011,0,0,0,.9,14.927L8.51,22.638a3.793,3.793,0,0,0,4.994.25,3.01,3.01,0,0,0,.274-4.537L8.535,13.033l7.447-6.053-4.337,5.352,4.243,4.3a5.422,5.422,0,0,1-.5,8.167A6.833,6.833,0,0,1,9.05,25.928s.033,14.866.033,30.787a4.064,4.064,0,0,0,4.245,3.856,4.066,4.066,0,0,0,4.245-3.856V33.736H20.4V56.715a5.928,5.928,0,0,1-.885,3.052,4.472,4.472,0,0,0,2.565.8,4.065,4.065,0,0,0,4.246-3.856c0-15.916.005-9.244.005-50.246C26.335,2.9,23.146,0,19.211,0Z" transform="translate(694 985.673)" fill="#5c5c5c"/>
        <path id="XMLID_130" data-name="XMLID 130" d="M4.494,14.159a8.664,8.664,0,0,0,7.563,0,7.437,7.437,0,0,0,4.488-6.645c0-4.15-3.7-7.513-8.274-7.513S0,3.363,0,7.513A7.435,7.435,0,0,0,4.494,14.159Z" transform="translate(703.416 969.2)" fill="#5c5c5c"/>
      </g>
    </g>
  </g>
</svg>
