<svg xmlns="http://www.w3.org/2000/svg" width="87.225" height="78.111" viewBox="0 0 87.225 78.111">
  <g id="icon-stamp" transform="translate(-1137 -3518.234)">
    <ellipse id="Ellipse_15" data-name="Ellipse 15" cx="39" cy="35.422" rx="39" ry="35.422" transform="translate(1137 3518.234)" fill="#f58626"/>
    <g id="Group">
      <g id="Group-2" data-name="Group">
        <path id="Vector" d="M55.206,53.655l-7.029-8.33a10.151,10.151,0,0,0,5.561-3.8c1.655-2.638.907-5.857.183-8.966a22.713,22.713,0,0,1-.782-4.877,22.705,22.705,0,0,1,.782-4.881c.72-3.112,1.473-6.328-.183-8.962-1.714-2.73-5.166-3.741-8.5-4.716a26.029,26.029,0,0,1-4.8-1.734,23.214,23.214,0,0,1-3.848-2.875C34.107,2.4,31.3,0,27.725,0s-6.382,2.4-8.86,4.517a23.218,23.218,0,0,1-3.847,2.876,26.025,26.025,0,0,1-4.8,1.729c-3.338.975-6.79,1.986-8.5,4.716C.057,16.477.806,19.7,1.53,22.805a22.7,22.7,0,0,1,.781,4.881,22.705,22.705,0,0,1-.782,4.881C.809,35.679.056,38.9,1.711,41.53a10.153,10.153,0,0,0,5.567,3.794L.243,53.654a1.01,1.01,0,0,0,.2,1.494,1.227,1.227,0,0,0,.853.216l8.259-.951L11.6,60.99a1.124,1.124,0,0,0,.891.753,1.275,1.275,0,0,0,.219.019,1.193,1.193,0,0,0,.913-.411L21,52.6a11.119,11.119,0,0,0,6.728,2.769A11.119,11.119,0,0,0,34.453,52.6l7.377,8.744a1.192,1.192,0,0,0,.913.414,1.275,1.275,0,0,0,.219-.019,1.124,1.124,0,0,0,.891-.753l2.039-6.576,8.259.951a1.14,1.14,0,0,0,1.29-.924A1,1,0,0,0,55.206,53.655ZM13.193,58.387,11.507,52.95a1.158,1.158,0,0,0-1.253-.764l-6.469.745,5.8-6.87.639.188a26.023,26.023,0,0,1,4.8,1.729,23.214,23.214,0,0,1,3.848,2.875l.4.339Zm14.532-5.144c-2.668,0-4.913-1.917-7.29-3.949a25.211,25.211,0,0,0-4.261-3.159,28.166,28.166,0,0,0-5.26-1.917c-3.053-.893-5.938-1.737-7.2-3.754-1.208-1.926-.585-4.611.077-7.454a24.179,24.179,0,0,0,.834-5.324,24.169,24.169,0,0,0-.833-5.324c-.662-2.842-1.286-5.527-.077-7.454,1.271-2.017,4.151-2.86,7.2-3.754a28.174,28.174,0,0,0,5.258-1.917,25.209,25.209,0,0,0,4.26-3.159c2.379-2.032,4.623-3.949,7.291-3.949s4.913,1.917,7.29,3.949a25.211,25.211,0,0,0,4.261,3.159,28.166,28.166,0,0,0,5.26,1.917c3.053.893,5.938,1.737,7.2,3.754,1.208,1.926.585,4.611-.077,7.454a24.179,24.179,0,0,0-.834,5.324,24.169,24.169,0,0,0,.833,5.324c.662,2.842,1.286,5.527.077,7.454-1.271,2.017-4.151,2.86-7.2,3.754a28.174,28.174,0,0,0-5.258,1.917,25.209,25.209,0,0,0-4.26,3.159C32.638,51.326,30.393,53.243,27.725,53.243ZM45.2,52.187a1.158,1.158,0,0,0-1.253.764l-1.691,5.437-6.069-7.193.4-.339a23.218,23.218,0,0,1,3.847-2.876,26.025,26.025,0,0,1,4.8-1.729l.639-.188,5.8,6.87Z" transform="translate(1168.775 3534.583)" fill="#fff"/>
      </g>
    </g>
    <g id="Group-3" data-name="Group">
      <g id="Group-4" data-name="Group">
        <path id="Vector-2" data-name="Vector" d="M20.793,0C9.309,0,0,8.582,0,19.167S9.309,38.335,20.793,38.335s20.793-8.582,20.793-19.167S32.271.012,20.793,0Zm0,36.205c-10.208,0-18.483-7.628-18.483-17.038S10.585,2.13,20.793,2.13,39.276,9.758,39.276,19.167,31,36.194,20.793,36.205Z" transform="translate(1175.707 3543.101)" fill="#fff"/>
      </g>
    </g>
    <g id="Group-5" data-name="Group">
      <g id="Group-6" data-name="Group">
        <path id="Vector-3" data-name="Vector" d="M27.1,8.547a2.378,2.378,0,0,0-1.867-.876H18.163l-2.195-6.2A2.358,2.358,0,0,0,13.052.107a2.228,2.228,0,0,0-1.473,1.358L9.389,7.67H2.312A2.226,2.226,0,0,0,0,9.8a2.081,2.081,0,0,0,.951,1.723l5.725,3.834-2.187,6.2a2.1,2.1,0,0,0,1.483,2.684,2.473,2.473,0,0,0,2.073-.3l5.729-3.832L19.5,23.942a2.434,2.434,0,0,0,2.717,0,2.011,2.011,0,0,0,.839-2.381l-2.187-6.206,5.725-3.834A2.024,2.024,0,0,0,27.1,8.547ZM18.83,14.088a1.02,1.02,0,0,0-.419,1.192l2.447,6.941-6.405-4.289a1.235,1.235,0,0,0-1.357,0L6.69,22.221,9.135,15.28a1.02,1.02,0,0,0-.419-1.191L2.312,9.8h7.916a1.15,1.15,0,0,0,1.1-.736l2.447-6.941,2.447,6.94a1.15,1.15,0,0,0,1.1.736h7.916Z" transform="translate(1182.727 3549.274)" fill="#fff"/>
      </g>
    </g>
  </g>
</svg>
