<svg xmlns="http://www.w3.org/2000/svg" width="34" height="26.307" viewBox="0 0 34 26.307">
  <path id="icon-quote" d="M0,16.583c0,6.181,4,9.724,8.445,9.724a7.817,7.817,0,0,0,7.572-7.915c0-4.221-2.839-7.01-6.334-7.01a5.528,5.528,0,0,0-1.893.3,14.72,14.72,0,0,1,6.625-7.236L9.1,0C3.422,4.146,0,9.95,0,16.583Zm17.983,0c0,6.181,4,9.724,8.445,9.724A7.817,7.817,0,0,0,34,18.392c0-4.221-2.839-7.01-6.334-7.01a5.528,5.528,0,0,0-1.893.3A14.72,14.72,0,0,1,32.4,4.447L27.084,0C21.4,4.146,17.983,9.95,17.983,16.583Z" fill="#5c5c5c"/>
</svg>
